<svg xmlns="http://www.w3.org/2000/svg" id="Calque_1" width="40" height="27.28" x="0" y="0" data-name="Calque 1" viewBox="0 0 141.43 96.13"><defs><style>.cls-1{fill:#026946}</style></defs><path d="M1.37 84.81h130.38v11.32H1.37z" class="cls-1"/><path d="M143.38 15.39s-20.51 11.42-25.31 13.16c-4.41 1.69-6.14-.49-6.55-1.34-.88-.82-3.47-8.4-3.45-8.41a24.6 24.6 0 0 0 3.87-.41c3.1-.86 31.42-16.12 31.44-16.11z" style="fill:#de092e" transform="translate(-1.95 -2.28)"/><path d="m84.27 23.19 8.78 21.39 15.54-7.94L95.16 7.72H75.57L48.05 57.51s13.53-.41 22.19-6.74c2.2-1.26 8.37-17 14-27.58Z" class="cls-1"/><path d="M110.57 38.92 95 46.86c-13.28 6.61-25.91 12.41-32.71 14.28-17.95 5-39.81 8-47.67 1.27-7.38-6.36 9.67-33 41.93-38.94 5.19-1.26 8.29-.84 8.29-.81s-2.58-9.79-3.94-11c-2.6-2.62-4.76-3.45-8.28-3-7 .4-36.68 8.09-48.4 32.11-6.54 13.65 2.59 28 8.26 31.77 1.73 1.35 19.21 16.12 58 1.36 38.43-14.48 72.87-37.28 72.89-37.28V21.33s-15.18 8.43-32.8 17.59" style="fill:#079299" transform="translate(-1.95 -2.28)"/><path d="M98.53 58.48c1.44 3.28 5.57 12.82 6.63 15.57a5.52 5.52 0 0 0 4.82 3h17.93l-13.35-26.87c-4.9 2.66-10.29 5.48-16.03 8.3" class="cls-1"/></svg>